<svg id="visual"
     viewBox="0 0 900 600"
     xmlns="http://www.w3.org/2000/svg"
     xmlns:xlink="http://www.w3.org/1999/xlink"
     version="1.1"
     preserveAspectRatio="none">
  <path d="M0 410L21.5 414.3C43 418.7 86 427.3 128.8 439.7C171.7 452 214.3 468 257.2 460.2C300 452.3 343 420.7 385.8 405.5C428.7 390.3 471.3 391.7 514.2 397C557 402.3 600 411.7 642.8 424C685.7 436.3 728.3 451.7 771.2 453.3C814 455 857 443 878.5 437L900 431L900 601L878.5 601C857 601 814 601 771.2 601C728.3 601 685.7 601 642.8 601C600 601 557 601 514.2 601C471.3 601 428.7 601 385.8 601C343 601 300 601 257.2 601C214.3 601 171.7 601 128.8 601C86 601 43 601 21.5 601L0 601Z" fill="#69fac1"></path>
  <path d="M0 499L21.5 493C43 487 86 475 128.8 479.5C171.7 484 214.3 505 257.2 518.3C300 531.7 343 537.3 385.8 529.7C428.7 522 471.3 501 514.2 493.7C557 486.3 600 492.7 642.8 503.3C685.7 514 728.3 529 771.2 535.8C814 542.7 857 541.3 878.5 540.7L900 540L900 601L878.5 601C857 601 814 601 771.2 601C728.3 601 685.7 601 642.8 601C600 601 557 601 514.2 601C471.3 601 428.7 601 385.8 601C343 601 300 601 257.2 601C214.3 601 171.7 601 128.8 601C86 601 43 601 21.5 601L0 601Z" fill="#3e6570"></path>
</svg>