<svg id="visual"
     viewBox="0 0 900 600"
     xmlns="http://www.w3.org/2000/svg"
     xmlns:xlink="http://www.w3.org/1999/xlink"
     version="1.1"
     preserveAspectRatio="none">
  <path d="M0 413L21.5 407.2C43 401.3 86 389.7 128.8 392.7C171.7 395.7 214.3 413.3 257.2 429.3C300 445.3 343 459.7 385.8 454.2C428.7 448.7 471.3 423.3 514.2 411.7C557 400 600 402 642.8 407C685.7 412 728.3 420 771.2 413.3C814 406.7 857 385.3 878.5 374.7L900 364L900 601L878.5 601C857 601 814 601 771.2 601C728.3 601 685.7 601 642.8 601C600 601 557 601 514.2 601C471.3 601 428.7 601 385.8 601C343 601 300 601 257.2 601C214.3 601 171.7 601 128.8 601C86 601 43 601 21.5 601L0 601Z" fill="#69fac1"></path>
  <path d="M0 468L21.5 469C43 470 86 472 128.8 481.3C171.7 490.7 214.3 507.3 257.2 516C300 524.7 343 525.3 385.8 519C428.7 512.7 471.3 499.3 514.2 491.5C557 483.7 600 481.3 642.8 477.8C685.7 474.3 728.3 469.7 771.2 465.7C814 461.7 857 458.3 878.5 456.7L900 455L900 601L878.5 601C857 601 814 601 771.2 601C728.3 601 685.7 601 642.8 601C600 601 557 601 514.2 601C471.3 601 428.7 601 385.8 601C343 601 300 601 257.2 601C214.3 601 171.7 601 128.8 601C86 601 43 601 21.5 601L0 601Z" fill="#3e6570"></path>
</svg>