<svg id="visual" viewBox="0 0 900 600" width="900" height="600" xmlns="http://www.w3.org/2000/svg" xmlns:xlink="http://www.w3.org/1999/xlink" version="1.1"><rect x="0" y="0" width="900" height="600" fill="#ffffff"></rect><path d="M0 188L21.5 183.7C43 179.3 86 170.7 128.8 158.3C171.7 146 214.3 130 257.2 137.8C300 145.7 343 177.3 385.8 192.5C428.7 207.7 471.3 206.3 514.2 201C557 195.7 600 186.3 642.8 174C685.7 161.7 728.3 146.3 771.2 144.7C814 143 857 155 878.5 161L900 167L900 0L878.5 0C857 0 814 0 771.2 0C728.3 0 685.7 0 642.8 0C600 0 557 0 514.2 0C471.3 0 428.7 0 385.8 0C343 0 300 0 257.2 0C214.3 0 171.7 0 128.8 0C86 0 43 0 21.5 0L0 0Z" fill="#69fac1"></path><path d="M0 99L21.5 105C43 111 86 123 128.8 118.5C171.7 114 214.3 93 257.2 79.7C300 66.3 343 60.7 385.8 68.3C428.7 76 471.3 97 514.2 104.3C557 111.7 600 105.3 642.8 94.7C685.7 84 728.3 69 771.2 62.2C814 55.3 857 56.7 878.5 57.3L900 58L900 0L878.5 0C857 0 814 0 771.2 0C728.3 0 685.7 0 642.8 0C600 0 557 0 514.2 0C471.3 0 428.7 0 385.8 0C343 0 300 0 257.2 0C214.3 0 171.7 0 128.8 0C86 0 43 0 21.5 0L0 0Z" fill="#3e6570"></path></svg>